<?xml version="1.0" encoding="UTF-8" standalone="no"?><!DOCTYPE svg PUBLIC "-//W3C//DTD SVG 1.1//EN" "http://www.w3.org/Graphics/SVG/1.1/DTD/svg11.dtd"><svg width="375px" height="100%" viewBox="0 0 375 812" version="1.1" xmlns="http://www.w3.org/2000/svg" xmlns:xlink="http://www.w3.org/1999/xlink" xml:space="preserve" xmlns:serif="http://www.serif.com/" style="fill-rule:evenodd;clip-rule:evenodd;stroke-linejoin:round;stroke-miterlimit:2;"><g><rect x="0" y="0" width="375" height="812" style="fill:#202024;"/><circle cx="370" cy="115" r="300" style="fill:url(#_Radial1);"/><circle cx="5" cy="115" r="300" style="fill:url(#_Radial2);"/><circle cx="187.5" cy="234.5" r="157.5" style="fill:url(#_Radial3);"/><g><path d="M375,168.101l0,-478.8l-187.522,-107.787l-187.523,107.787l0,478.8l187.523,107.793l187.522,-107.793Z" style="fill:url(#_Linear4);fill-rule:nonzero;"/><g opacity="0.4"><path d="M1.837,61.393l-0,107.404l93.29,53.708l93.291,-53.708l0,-107.404l-93.291,-53.707l-93.29,53.707Z" style="fill:url(#_Linear5);fill-rule:nonzero;"/><path d="M1.837,-46.017l-0,107.405l93.29,53.707l93.291,-53.707l0,-107.405l-93.291,-53.707l-93.29,53.707Z" style="fill:url(#_Linear6);fill-rule:nonzero;"/><path d="M281.709,-99.696l0,107.404l-93.291,53.708l-93.291,-53.708l0,-107.404l93.291,-53.707l93.291,53.707Z" style="fill:url(#_Linear7);fill-rule:nonzero;"/><path d="M188.418,168.797l0,-107.404l93.291,-53.708l93.291,53.708l0,107.404l-93.291,53.707l-93.291,-53.707Z" style="fill:url(#_Linear8);fill-rule:nonzero;"/><path d="M375,-46.017l0,107.405l-93.291,53.707l-93.291,-53.707l0,-107.405l93.291,-53.707l93.291,53.707Z" style="fill:url(#_Linear9);fill-rule:nonzero;"/><path d="M281.709,222.527l0,-107.404l-93.291,-53.708l-93.291,53.708l0,107.404l93.291,53.708l93.291,-53.708Z" style="fill:url(#_Linear10);fill-rule:nonzero;"/></g></g></g><defs><radialGradient id="_Radial1" cx="0" cy="0" r="1" gradientUnits="userSpaceOnUse" gradientTransform="matrix(-1.14857e-13,-300,300,-1.14857e-13,370,115)"><stop offset="0" style="stop-color:#ffcd1e;stop-opacity:1"/><stop offset="1" style="stop-color:#121214;stop-opacity:0"/></radialGradient><radialGradient id="_Radial2" cx="0" cy="0" r="1" gradientUnits="userSpaceOnUse" gradientTransform="matrix(-1.14857e-13,-300,300,-1.14857e-13,5.00002,115)"><stop offset="0" style="stop-color:#ff1e1e;stop-opacity:1"/><stop offset="1" style="stop-color:#121214;stop-opacity:0"/></radialGradient><radialGradient id="_Radial3" cx="0" cy="0" r="1" gradientUnits="userSpaceOnUse" gradientTransform="matrix(-6.03e-14,-157.5,157.5,-6.03e-14,187.5,234.5)"><stop offset="0" style="stop-color:#3fd1ff;stop-opacity:1"/><stop offset="1" style="stop-color:#121214;stop-opacity:0"/></radialGradient><linearGradient id="_Linear4" x1="0" y1="0" x2="1" y2="0" gradientUnits="userSpaceOnUse" gradientTransform="matrix(504.065,173.418,-173.418,504.065,-67.9497,58.9385)"><stop offset="0" style="stop-color:#ff1e1e;stop-opacity:1"/><stop offset="1" style="stop-color:#ffcd1e;stop-opacity:1"/></linearGradient><linearGradient id="_Linear5" x1="0" y1="0" x2="1" y2="0" gradientUnits="userSpaceOnUse" gradientTransform="matrix(-92.8892,-158.518,158.518,-92.8892,95.1275,217.565)"><stop offset="0" style="stop-color:#e2e557;stop-opacity:1"/><stop offset="1" style="stop-color:#ff008e;stop-opacity:0"/></linearGradient><linearGradient id="_Linear6" x1="0" y1="0" x2="1" y2="0" gradientUnits="userSpaceOnUse" gradientTransform="matrix(-92.8892,-158.518,158.518,-92.8892,95.1275,110.155)"><stop offset="0" style="stop-color:#e2e557;stop-opacity:1"/><stop offset="1" style="stop-color:#ff008e;stop-opacity:0"/></linearGradient><linearGradient id="_Linear7" x1="0" y1="0" x2="1" y2="0" gradientUnits="userSpaceOnUse" gradientTransform="matrix(186.293,112.418,-112.418,186.293,95.1275,-105.732)"><stop offset="0" style="stop-color:#ff008e;stop-opacity:0"/><stop offset="1" style="stop-color:#ffcd1e;stop-opacity:1"/></linearGradient><linearGradient id="_Linear8" x1="0" y1="0" x2="1" y2="0" gradientUnits="userSpaceOnUse" gradientTransform="matrix(-186.294,-112.418,112.418,-186.294,375,174.833)"><stop offset="0" style="stop-color:#ff008e;stop-opacity:0"/><stop offset="1" style="stop-color:#ffcd1e;stop-opacity:1"/></linearGradient><linearGradient id="_Linear9" x1="0" y1="0" x2="1" y2="0" gradientUnits="userSpaceOnUse" gradientTransform="matrix(92.889,-158.518,158.518,92.889,281.709,110.155)"><stop offset="0" style="stop-color:#e2e557;stop-opacity:1"/><stop offset="1" style="stop-color:#ff008e;stop-opacity:0"/></linearGradient><linearGradient id="_Linear10" x1="0" y1="0" x2="1" y2="0" gradientUnits="userSpaceOnUse" gradientTransform="matrix(92.889,158.518,-158.518,92.889,188.418,66.3552)"><stop offset="0" style="stop-color:#e2e557;stop-opacity:1"/><stop offset="1" style="stop-color:#ff008e;stop-opacity:0"/></linearGradient></defs></svg>