<?xml version="1.0" encoding="UTF-8" standalone="no"?><!DOCTYPE svg PUBLIC "-//W3C//DTD SVG 1.1//EN" "http://www.w3.org/Graphics/SVG/1.1/DTD/svg11.dtd"><svg width="800px" height="100%" viewBox="0 0 800 812" version="1.1" xmlns="http://www.w3.org/2000/svg" xmlns:xlink="http://www.w3.org/1999/xlink" xml:space="preserve" xmlns:serif="http://www.serif.com/" style="fill-rule:evenodd;clip-rule:evenodd;stroke-linejoin:round;stroke-miterlimit:2;"><g><rect x="0" y="0" width="800" height="812" style="fill:#202024;"/><circle cx="729" cy="-37" r="542" style="fill:url(#_Radial1);"/><circle cx="70" cy="-37" r="542" style="fill:url(#_Radial2);"/><circle cx="399.5" cy="178.5" r="284.5" style="fill:url(#_Radial3);"/><g><path d="M800,133.882l0,-629.461l-400,-141.703l-400,141.703l0,629.461l400,141.712l400,-141.712Z" style="fill:url(#_Linear4);fill-rule:nonzero;"/><g opacity="0.4"><path d="M-0,-10.413l-0,143.302l200,71.658l200,-71.658l0,-143.302l-200,-71.657l-200,71.657Z" style="fill:url(#_Linear5);fill-rule:nonzero;"/><path d="M-0,-153.722l-0,143.302l200,71.658l200,-71.658l0,-143.302l-200,-71.657l-200,71.657Z" style="fill:url(#_Linear6);fill-rule:nonzero;"/><path d="M400,132.889l0,-143.302l200,-71.658l200,71.658l0,143.302l-200,71.657l-200,-71.657Z" style="fill:url(#_Linear7);fill-rule:nonzero;"/><path d="M800,-153.722l0,143.302l-200,71.658l-200,-71.658l0,-143.302l200,-71.657l200,71.657Z" style="fill:url(#_Linear8);fill-rule:nonzero;"/><path d="M600,204.577l0,-143.302l-200,-71.658l-200,71.658l0,143.302l200,71.657l200,-71.657Z" style="fill:url(#_Linear9);fill-rule:nonzero;"/></g></g></g><defs><radialGradient id="_Radial1" cx="0" cy="0" r="1" gradientUnits="userSpaceOnUse" gradientTransform="matrix(-2.07508e-13,-542,542,-2.07508e-13,729,-37)"><stop offset="0" style="stop-color:#ffcd1e;stop-opacity:1"/><stop offset="1" style="stop-color:#121214;stop-opacity:0"/></radialGradient><radialGradient id="_Radial2" cx="0" cy="0" r="1" gradientUnits="userSpaceOnUse" gradientTransform="matrix(-2.07508e-13,-542,542,-2.07508e-13,70,-37)"><stop offset="0" style="stop-color:#ff1e1e;stop-opacity:1"/><stop offset="1" style="stop-color:#121214;stop-opacity:0"/></radialGradient><radialGradient id="_Radial3" cx="0" cy="0" r="1" gradientUnits="userSpaceOnUse" gradientTransform="matrix(-1.08923e-13,-284.5,284.5,-1.08923e-13,399.5,178.5)"><stop offset="0" style="stop-color:#3fd1ff;stop-opacity:1"/><stop offset="1" style="stop-color:#121214;stop-opacity:0"/></radialGradient><linearGradient id="_Linear4" x1="0" y1="0" x2="1" y2="0" gradientUnits="userSpaceOnUse" gradientTransform="matrix(916.796,511.771,-511.771,916.796,-144.847,-9.63019)"><stop offset="0" style="stop-color:#ff1e1e;stop-opacity:1"/><stop offset="1" style="stop-color:#ffcd1e;stop-opacity:1"/></linearGradient><linearGradient id="_Linear5" x1="0" y1="0" x2="1" y2="0" gradientUnits="userSpaceOnUse" gradientTransform="matrix(-91.454,-250.771,250.771,-91.454,200,197.956)"><stop offset="0" style="stop-color:#e2e557;stop-opacity:1"/><stop offset="1" style="stop-color:#ff008e;stop-opacity:0"/></linearGradient><linearGradient id="_Linear6" x1="0" y1="0" x2="1" y2="0" gradientUnits="userSpaceOnUse" gradientTransform="matrix(-91.454,-250.771,250.771,-91.454,200,54.6473)"><stop offset="0" style="stop-color:#e2e557;stop-opacity:1"/><stop offset="1" style="stop-color:#ff008e;stop-opacity:0"/></linearGradient><linearGradient id="_Linear7" x1="0" y1="0" x2="1" y2="0" gradientUnits="userSpaceOnUse" gradientTransform="matrix(-280.811,-272.278,272.278,-280.811,800,140.942)"><stop offset="0" style="stop-color:#ff008e;stop-opacity:0"/><stop offset="1" style="stop-color:#ffcd1e;stop-opacity:1"/></linearGradient><linearGradient id="_Linear8" x1="0" y1="0" x2="1" y2="0" gradientUnits="userSpaceOnUse" gradientTransform="matrix(91.454,-250.771,250.771,91.454,600,54.6473)"><stop offset="0" style="stop-color:#e2e557;stop-opacity:1"/><stop offset="1" style="stop-color:#ff008e;stop-opacity:0"/></linearGradient><linearGradient id="_Linear9" x1="0" y1="0" x2="1" y2="0" gradientUnits="userSpaceOnUse" gradientTransform="matrix(91.454,250.771,-250.771,91.454,400,-3.79215)"><stop offset="0" style="stop-color:#e2e557;stop-opacity:1"/><stop offset="1" style="stop-color:#ff008e;stop-opacity:0"/></linearGradient></defs></svg>