<?xml version="1.0" encoding="UTF-8" standalone="no"?><!DOCTYPE svg PUBLIC "-//W3C//DTD SVG 1.1//EN" "http://www.w3.org/Graphics/SVG/1.1/DTD/svg11.dtd"><svg width="48" height="48" viewBox="0 0 48 48" version="1.1" xmlns="http://www.w3.org/2000/svg" xmlns:xlink="http://www.w3.org/1999/xlink" xml:space="preserve" xmlns:serif="http://www.serif.com/" style="fill-rule:evenodd;clip-rule:evenodd;stroke-linejoin:round;stroke-miterlimit:2;"><rect x="0" y="0" width="48" height="48" style="fill:#323238;"/><g><path d="M22.724,36c-1.107,-0 -2.4,-0.006 -3.676,-0.079c-1.867,0.042 -3.675,-0.654 -5.032,-1.937c-1.283,-1.357 -1.979,-3.164 -1.937,-5.031c-0.079,-1.443 -0.079,-2.902 -0.079,-4.313l-0,-1.28c-0,-1.411 -0,-2.87 0.079,-4.312c-0.042,-1.867 0.654,-3.675 1.937,-5.032c1.357,-1.283 3.165,-1.979 5.032,-1.937c1.28,-0.073 2.569,-0.079 3.676,-0.079l2.553,-0c1.107,-0 2.4,0.006 3.677,0.079c1.867,-0.042 3.675,0.654 5.031,1.937c1.283,1.357 1.979,3.165 1.937,5.032c0.078,1.442 0.078,2.901 0.078,4.313l-0,1.279c-0,1.411 -0,2.87 -0.079,4.314c0.042,1.867 -0.654,3.675 -1.937,5.031c-1.356,1.283 -3.164,1.979 -5.031,1.937c-1.281,0.073 -2.57,0.079 -3.677,0.079l-2.552,-0.001Z" style="fill:#fff;fill-rule:nonzero;"/><path d="M29.606,18.789c0.237,0.157 0.515,0.242 0.799,0.242l0.001,0.001c0.381,-0.001 0.747,-0.153 1.016,-0.422c0.27,-0.27 0.421,-0.636 0.421,-1.017c-0,-0.285 -0.084,-0.563 -0.242,-0.799c-0.158,-0.237 -0.383,-0.421 -0.646,-0.53c-0.262,-0.109 -0.552,-0.137 -0.831,-0.082c-0.278,0.056 -0.535,0.193 -0.736,0.394c-0.201,0.201 -0.338,0.457 -0.393,0.736c-0.056,0.279 -0.027,0.568 0.081,0.831c0.109,0.263 0.294,0.488 0.53,0.645Z" style="fill:#323238;fill-rule:nonzero;"/><path d="M24,30.156c-1.217,-0.001 -2.407,-0.362 -3.419,-1.038c-1.013,-0.677 -1.802,-1.638 -2.267,-2.763c-0.466,-1.125 -0.588,-2.363 -0.35,-3.557c0.237,-1.194 0.824,-2.291 1.685,-3.152c0.861,-0.861 1.958,-1.447 3.152,-1.684c1.194,-0.238 2.432,-0.116 3.556,0.35c1.125,0.466 2.087,1.255 2.763,2.268c0.676,1.012 1.037,2.202 1.037,3.42c-0.001,1.632 -0.65,3.197 -1.805,4.351c-1.154,1.155 -2.719,1.803 -4.352,1.805Zm0,-10.156c-0.791,0 -1.564,0.235 -2.222,0.674c-0.658,0.44 -1.17,1.064 -1.473,1.795c-0.303,0.731 -0.382,1.535 -0.228,2.311c0.155,0.776 0.535,1.489 1.095,2.048c0.559,0.56 1.272,0.941 2.048,1.095c0.776,0.155 1.58,0.075 2.311,-0.227c0.731,-0.303 1.356,-0.816 1.795,-1.474c0.44,-0.657 0.674,-1.431 0.674,-2.222c0,-1.061 -0.421,-2.078 -1.171,-2.828c-0.75,-0.751 -1.768,-1.172 -2.829,-1.172Z" style="fill:#323238;"/></g></svg>