<?xml version="1.0" encoding="UTF-8" standalone="no"?><!DOCTYPE svg PUBLIC "-//W3C//DTD SVG 1.1//EN" "http://www.w3.org/Graphics/SVG/1.1/DTD/svg11.dtd"><svg width="48" height="48" viewBox="0 0 56 56" version="1.1" xmlns="http://www.w3.org/2000/svg" xmlns:xlink="http://www.w3.org/1999/xlink" xml:space="preserve" xmlns:serif="http://www.serif.com/" style="fill-rule:evenodd;clip-rule:evenodd;stroke-linejoin:round;stroke-miterlimit:2;"><g><rect x="0" y="0" width="56" height="56" style="fill:#323238;"/><g><path d="M42.799,19.653c-1.079,0.456 -2.222,0.756 -3.393,0.892c1.235,-0.707 2.159,-1.818 2.6,-3.127c-1.159,0.661 -2.429,1.127 -3.753,1.376c-0.809,-0.83 -1.861,-1.408 -3.019,-1.658c-1.158,-0.25 -2.367,-0.161 -3.471,0.256c-1.104,0.417 -2.051,1.143 -2.717,2.082c-0.666,0.939 -1.02,2.048 -1.017,3.182c-0.002,0.434 0.049,0.867 0.153,1.29c-2.352,-0.112 -4.653,-0.696 -6.753,-1.715c-2.1,-1.019 -3.951,-2.45 -5.433,-4.199c-0.756,1.245 -0.986,2.719 -0.645,4.121c0.341,1.403 1.229,2.628 2.483,3.427c-0.942,-0.023 -1.864,-0.265 -2.686,-0.707l0,0.071c-0,1.306 0.472,2.571 1.337,3.582c0.865,1.011 2.07,1.704 3.409,1.962c-0.507,0.131 -1.031,0.198 -1.556,0.198c-0.373,0 -0.745,-0.035 -1.111,-0.105c0.378,1.123 1.113,2.106 2.104,2.809c0.99,0.704 2.186,1.094 3.42,1.117c-2.093,1.573 -4.68,2.425 -7.344,2.42c-0.471,-0 -0.942,-0.027 -1.409,-0.081c2.691,1.674 5.834,2.562 9.044,2.555c2.215,0.015 4.411,-0.392 6.46,-1.195c2.049,-0.803 3.91,-1.988 5.476,-3.485c1.566,-1.497 2.805,-3.277 3.644,-5.235c0.84,-1.959 1.264,-4.058 1.248,-6.175c0,-0.245 0,-0.49 -0.019,-0.729c1.157,-0.801 2.155,-1.793 2.948,-2.929Z" style="fill:#fff;fill-rule:nonzero;"/></g></g></svg>